<?xml version="1.0" encoding="iso-8859-1"?>
<!-- Generator: Adobe Illustrator 19.0.0, SVG Export Plug-In . SVG Version: 6.00 Build 0)  -->
<svg version="1.1" id="Capa_1" xmlns="http://www.w3.org/2000/svg" xmlns:xlink="http://www.w3.org/1999/xlink" x="0px" y="0px"
	 viewBox="0 0 512.007 512.007" style="enable-background:new 0 0 512.007 512.007;" xml:space="preserve">
<circle style="fill:rgb(206, 206, 206);" cx="256.003" cy="256.003" r="256.003"/>
<path style="fill:rgb(148, 148, 148);" d="M397.917,114.083c-78.378-78.378-205.455-78.378-283.835,0s-78.378,205.455,0,283.835
	l112.376,112.377c9.694,1.114,19.548,1.707,29.541,1.707c141.385,0,256-114.615,256-256c0-9.993-0.593-19.846-1.707-29.541
	L397.917,114.083z"/>
<circle style="fill:#B20710;" cx="256.003" cy="256.003" r="200.705"/>
<g>
	
		<rect x="59.81" y="182.475" transform="matrix(-0.7071 0.7071 -0.7071 -0.7071 457.3416 181.9398)" style="fill:rgb(206, 206, 206);" width="262.36" height="6.426"/>
	
		<rect x="65.979" y="210.952" transform="matrix(-0.7071 0.7071 -0.7071 -0.7071 520.912 212.5611)" style="fill:rgb(206, 206, 206);" width="300.907" height="6.426"/>
	
		<rect x="81.153" y="237.9" transform="matrix(-0.7071 0.7071 -0.7071 -0.7071 585.9812 239.5039)" style="fill:rgb(206, 206, 206);" width="324.47" height="6.426"/>
	
		<rect x="108.108" y="264.861" transform="matrix(-0.7071 0.7071 -0.7071 -0.7071 651.0609 266.4688)" style="fill:rgb(206, 206, 206);" width="324.47" height="6.426"/>
	
		<rect x="146.847" y="291.824" transform="matrix(-0.7071 0.7071 -0.7071 -0.7071 716.1476 293.4367)" style="fill:rgb(206, 206, 206);" width="300.907" height="6.426"/>
	
		<rect x="188.196" y="319.915" transform="matrix(-0.7071 0.7071 -0.7071 -0.7071 780.091 323.1326)" style="fill:rgb(206, 206, 206);" width="269.852" height="6.426"/>
	<polygon style="fill:rgb(206, 206, 206);" points="179.127,213.96 161.837,214.843 162.721,197.553 198.563,161.711 216.862,159.818 
		214.969,178.118 	"/>
	<polygon style="fill:rgb(206, 206, 206);" points="286.955,321.787 269.666,322.671 270.549,305.381 306.391,269.54 324.69,267.647 
		322.797,285.946 	"/>
	<polygon style="fill:rgb(206, 206, 206);" points="320.727,341.93 303.437,342.813 304.32,325.523 326.532,303.311 344.832,301.418 
		342.939,319.718 	"/>
	<polygon style="fill:rgb(206, 206, 206);" points="184.882,262.119 167.593,263.002 168.476,245.712 246.721,167.467 265.021,165.574 
		263.128,183.873 	"/>
	<polygon style="fill:rgb(206, 206, 206);" points="238.796,316.033 221.507,316.916 222.39,299.626 300.635,221.38 318.935,219.487 
		317.042,237.786 	"/>
	<polygon style="fill:rgb(206, 206, 206);" points="177.764,323.151 160.475,324.034 161.358,306.744 307.753,160.348 326.053,158.456 
		324.16,176.754 	"/>
	<path style="fill:rgb(206, 206, 206);" d="M378.67,378.67c-67.64,67.64-177.7,67.64-245.339,0s-67.64-177.699,0-245.339s177.7-67.64,245.339,0
		S446.31,311.029,378.67,378.67z M148.475,148.475c-59.29,59.29-59.29,155.761,0,215.05s155.761,59.289,215.05,0
		s59.29-155.761,0-215.05S207.764,89.186,148.475,148.475z"/>
</g>
<g>
</g>
<g>
</g>
<g>
</g>
<g>
</g>
<g>
</g>
<g>
</g>
<g>
</g>
<g>
</g>
<g>
</g>
<g>
</g>
<g>
</g>
<g>
</g>
<g>
</g>
<g>
</g>
<g>
</g>
</svg>
